<svg xmlns="http://www.w3.org/2000/svg" xmlns:xlink="http://www.w3.org/1999/xlink" width="224" zoomAndPan="magnify" viewBox="0 0 168 31.5" height="42" preserveAspectRatio="xMidYMid meet" version="1.0"><defs><g/><clipPath id="4dde339f72"><path d="M 13.675781 4.78125 L 32.824219 4.78125 L 32.824219 30.289062 L 13.675781 30.289062 Z M 13.675781 4.78125 " clip-rule="nonzero"/></clipPath><clipPath id="e8e0dd0ebf"><path d="M 32.824219 23.929688 L 32.824219 4.78125 L 13.675781 11.164062 L 13.675781 30.3125 Z M 32.824219 23.929688 " clip-rule="nonzero"/></clipPath><linearGradient x1="0.00241358" gradientTransform="matrix(0, 0.0747986, -0.0747986, 0, 32.824167, 4.782179)" y1="128" x2="341.00241" gradientUnits="userSpaceOnUse" y2="128" id="f831c604f8"><stop stop-opacity="1" stop-color="rgb(0%, 0%, 0%)" offset="0"/><stop stop-opacity="1" stop-color="rgb(0.0808716%, 0.0778198%, 0.312805%)" offset="0.00390625"/><stop stop-opacity="1" stop-color="rgb(0.161743%, 0.15564%, 0.627136%)" offset="0.0078125"/><stop stop-opacity="1" stop-color="rgb(0.242615%, 0.233459%, 0.939941%)" offset="0.0117187"/><stop stop-opacity="1" stop-color="rgb(0.323486%, 0.311279%, 1.254272%)" offset="0.015625"/><stop stop-opacity="1" stop-color="rgb(0.404358%, 0.389099%, 1.568604%)" offset="0.0195312"/><stop stop-opacity="1" stop-color="rgb(0.486755%, 0.466919%, 1.882935%)" offset="0.0234375"/><stop stop-opacity="1" stop-color="rgb(0.567627%, 0.544739%, 2.19574%)" offset="0.0273438"/><stop stop-opacity="1" stop-color="rgb(0.648499%, 0.624084%, 2.510071%)" offset="0.03125"/><stop stop-opacity="1" stop-color="rgb(0.72937%, 0.701904%, 2.822876%)" offset="0.0351562"/><stop stop-opacity="1" stop-color="rgb(0.811768%, 0.779724%, 3.137207%)" offset="0.0390625"/><stop stop-opacity="1" stop-color="rgb(0.892639%, 0.857544%, 3.450012%)" offset="0.0429688"/><stop stop-opacity="1" stop-color="rgb(0.973511%, 0.935364%, 3.764343%)" offset="0.046875"/><stop stop-opacity="1" stop-color="rgb(1.054382%, 1.013184%, 4.078674%)" offset="0.0507812"/><stop stop-opacity="1" stop-color="rgb(1.135254%, 1.092529%, 4.393005%)" offset="0.0546875"/><stop stop-opacity="1" stop-color="rgb(1.216125%, 1.170349%, 4.705811%)" offset="0.0585937"/><stop stop-opacity="1" stop-color="rgb(1.298523%, 1.248169%, 5.020142%)" offset="0.0625"/><stop stop-opacity="1" stop-color="rgb(1.379395%, 1.325989%, 5.332947%)" offset="0.0664062"/><stop stop-opacity="1" stop-color="rgb(1.460266%, 1.403809%, 5.647278%)" offset="0.0703125"/><stop stop-opacity="1" stop-color="rgb(1.541138%, 1.481628%, 5.960083%)" offset="0.0742187"/><stop stop-opacity="1" stop-color="rgb(1.623535%, 1.560974%, 6.274414%)" offset="0.078125"/><stop stop-opacity="1" stop-color="rgb(1.704407%, 1.638794%, 6.588745%)" offset="0.0820312"/><stop stop-opacity="1" stop-color="rgb(1.785278%, 1.716614%, 6.903076%)" offset="0.0859375"/><stop stop-opacity="1" stop-color="rgb(1.86615%, 1.794434%, 7.215881%)" offset="0.0898437"/><stop stop-opacity="1" stop-color="rgb(1.947021%, 1.872253%, 7.530212%)" offset="0.09375"/><stop stop-opacity="1" stop-color="rgb(2.027893%, 1.950073%, 7.843018%)" offset="0.0976562"/><stop stop-opacity="1" stop-color="rgb(2.110291%, 2.027893%, 8.157349%)" offset="0.101562"/><stop stop-opacity="1" stop-color="rgb(2.191162%, 2.105713%, 8.470154%)" offset="0.105469"/><stop stop-opacity="1" stop-color="rgb(2.272034%, 2.185059%, 8.784485%)" offset="0.109375"/><stop stop-opacity="1" stop-color="rgb(2.352905%, 2.262878%, 9.098816%)" offset="0.113281"/><stop stop-opacity="1" stop-color="rgb(2.433777%, 2.340698%, 9.413147%)" offset="0.117187"/><stop stop-opacity="1" stop-color="rgb(2.514648%, 2.418518%, 9.725952%)" offset="0.121094"/><stop stop-opacity="1" stop-color="rgb(2.597046%, 2.496338%, 10.040283%)" offset="0.125"/><stop stop-opacity="1" stop-color="rgb(2.677917%, 2.574158%, 10.353088%)" offset="0.128906"/><stop stop-opacity="1" stop-color="rgb(2.758789%, 2.653503%, 10.667419%)" offset="0.132813"/><stop stop-opacity="1" stop-color="rgb(2.839661%, 2.731323%, 10.980225%)" offset="0.136719"/><stop stop-opacity="1" stop-color="rgb(2.922058%, 2.809143%, 11.294556%)" offset="0.140625"/><stop stop-opacity="1" stop-color="rgb(3.00293%, 2.886963%, 11.608887%)" offset="0.144531"/><stop stop-opacity="1" stop-color="rgb(3.083801%, 2.964783%, 11.923218%)" offset="0.148438"/><stop stop-opacity="1" stop-color="rgb(3.164673%, 3.042603%, 12.236023%)" offset="0.152344"/><stop stop-opacity="1" stop-color="rgb(3.245544%, 3.121948%, 12.550354%)" offset="0.15625"/><stop stop-opacity="1" stop-color="rgb(3.326416%, 3.199768%, 12.863159%)" offset="0.160156"/><stop stop-opacity="1" stop-color="rgb(3.408813%, 3.277588%, 13.17749%)" offset="0.164062"/><stop stop-opacity="1" stop-color="rgb(3.489685%, 3.355408%, 13.490295%)" offset="0.167969"/><stop stop-opacity="1" stop-color="rgb(3.570557%, 3.433228%, 13.804626%)" offset="0.171875"/><stop stop-opacity="1" stop-color="rgb(3.651428%, 3.511047%, 14.118958%)" offset="0.175781"/><stop stop-opacity="1" stop-color="rgb(3.733826%, 3.588867%, 14.433289%)" offset="0.179688"/><stop stop-opacity="1" stop-color="rgb(3.814697%, 3.666687%, 14.746094%)" offset="0.183594"/><stop stop-opacity="1" stop-color="rgb(3.895569%, 3.746033%, 15.060425%)" offset="0.1875"/><stop stop-opacity="1" stop-color="rgb(3.97644%, 3.823853%, 15.37323%)" offset="0.191406"/><stop stop-opacity="1" stop-color="rgb(4.057312%, 3.901672%, 15.687561%)" offset="0.195312"/><stop stop-opacity="1" stop-color="rgb(4.138184%, 3.979492%, 16.000366%)" offset="0.199219"/><stop stop-opacity="1" stop-color="rgb(4.220581%, 4.057312%, 16.314697%)" offset="0.203125"/><stop stop-opacity="1" stop-color="rgb(4.301453%, 4.135132%, 16.629028%)" offset="0.207031"/><stop stop-opacity="1" stop-color="rgb(4.382324%, 4.214478%, 16.943359%)" offset="0.210937"/><stop stop-opacity="1" stop-color="rgb(4.463196%, 4.292297%, 17.256165%)" offset="0.214844"/><stop stop-opacity="1" stop-color="rgb(4.545593%, 4.370117%, 17.570496%)" offset="0.21875"/><stop stop-opacity="1" stop-color="rgb(4.626465%, 4.447937%, 17.883301%)" offset="0.222656"/><stop stop-opacity="1" stop-color="rgb(4.707336%, 4.525757%, 18.197632%)" offset="0.226563"/><stop stop-opacity="1" stop-color="rgb(4.788208%, 4.603577%, 18.510437%)" offset="0.230469"/><stop stop-opacity="1" stop-color="rgb(4.86908%, 4.682922%, 18.824768%)" offset="0.234375"/><stop stop-opacity="1" stop-color="rgb(4.949951%, 4.760742%, 19.139099%)" offset="0.238281"/><stop stop-opacity="1" stop-color="rgb(5.032349%, 4.838562%, 19.45343%)" offset="0.242188"/><stop stop-opacity="1" stop-color="rgb(5.11322%, 4.916382%, 19.766235%)" offset="0.246094"/><stop stop-opacity="1" stop-color="rgb(5.194092%, 4.994202%, 20.080566%)" offset="0.25"/><stop stop-opacity="1" stop-color="rgb(5.274963%, 5.072021%, 20.393372%)" offset="0.253906"/><stop stop-opacity="1" stop-color="rgb(5.357361%, 5.149841%, 20.707703%)" offset="0.257813"/><stop stop-opacity="1" stop-color="rgb(5.438232%, 5.227661%, 21.020508%)" offset="0.261719"/><stop stop-opacity="1" stop-color="rgb(5.519104%, 5.307007%, 21.334839%)" offset="0.265625"/><stop stop-opacity="1" stop-color="rgb(5.599976%, 5.384827%, 21.647644%)" offset="0.269531"/><stop stop-opacity="1" stop-color="rgb(5.680847%, 5.462646%, 21.961975%)" offset="0.273438"/><stop stop-opacity="1" stop-color="rgb(5.761719%, 5.540466%, 22.276306%)" offset="0.277344"/><stop stop-opacity="1" stop-color="rgb(5.844116%, 5.618286%, 22.590637%)" offset="0.28125"/><stop stop-opacity="1" stop-color="rgb(5.924988%, 5.696106%, 22.903442%)" offset="0.285156"/><stop stop-opacity="1" stop-color="rgb(6.005859%, 5.775452%, 23.217773%)" offset="0.289063"/><stop stop-opacity="1" stop-color="rgb(6.086731%, 5.853271%, 23.530579%)" offset="0.292969"/><stop stop-opacity="1" stop-color="rgb(6.167603%, 5.931091%, 23.84491%)" offset="0.296875"/><stop stop-opacity="1" stop-color="rgb(6.248474%, 6.008911%, 24.157715%)" offset="0.300781"/><stop stop-opacity="1" stop-color="rgb(6.330872%, 6.086731%, 24.472046%)" offset="0.304688"/><stop stop-opacity="1" stop-color="rgb(6.411743%, 6.164551%, 24.786377%)" offset="0.308594"/><stop stop-opacity="1" stop-color="rgb(6.492615%, 6.243896%, 25.100708%)" offset="0.3125"/><stop stop-opacity="1" stop-color="rgb(6.573486%, 6.321716%, 25.413513%)" offset="0.316406"/><stop stop-opacity="1" stop-color="rgb(6.655884%, 6.399536%, 25.727844%)" offset="0.320312"/><stop stop-opacity="1" stop-color="rgb(6.736755%, 6.477356%, 26.040649%)" offset="0.324219"/><stop stop-opacity="1" stop-color="rgb(6.817627%, 6.555176%, 26.35498%)" offset="0.328125"/><stop stop-opacity="1" stop-color="rgb(6.898499%, 6.632996%, 26.667786%)" offset="0.332031"/><stop stop-opacity="1" stop-color="rgb(6.97937%, 6.710815%, 26.982117%)" offset="0.335938"/><stop stop-opacity="1" stop-color="rgb(7.060242%, 6.788635%, 27.296448%)" offset="0.339844"/><stop stop-opacity="1" stop-color="rgb(7.142639%, 6.867981%, 27.610779%)" offset="0.34375"/><stop stop-opacity="1" stop-color="rgb(7.223511%, 6.945801%, 27.923584%)" offset="0.347656"/><stop stop-opacity="1" stop-color="rgb(7.304382%, 7.023621%, 28.237915%)" offset="0.351562"/><stop stop-opacity="1" stop-color="rgb(7.385254%, 7.10144%, 28.55072%)" offset="0.355469"/><stop stop-opacity="1" stop-color="rgb(7.467651%, 7.17926%, 28.865051%)" offset="0.359375"/><stop stop-opacity="1" stop-color="rgb(7.548523%, 7.25708%, 29.177856%)" offset="0.363281"/><stop stop-opacity="1" stop-color="rgb(7.629395%, 7.336426%, 29.492188%)" offset="0.367188"/><stop stop-opacity="1" stop-color="rgb(7.710266%, 7.414246%, 29.806519%)" offset="0.371094"/><stop stop-opacity="1" stop-color="rgb(7.791138%, 7.492065%, 30.12085%)" offset="0.375"/><stop stop-opacity="1" stop-color="rgb(7.872009%, 7.569885%, 30.433655%)" offset="0.378906"/><stop stop-opacity="1" stop-color="rgb(7.954407%, 7.647705%, 30.747986%)" offset="0.382812"/><stop stop-opacity="1" stop-color="rgb(8.035278%, 7.725525%, 31.060791%)" offset="0.386719"/><stop stop-opacity="1" stop-color="rgb(8.11615%, 7.804871%, 31.375122%)" offset="0.390625"/><stop stop-opacity="1" stop-color="rgb(8.197021%, 7.88269%, 31.687927%)" offset="0.394531"/><stop stop-opacity="1" stop-color="rgb(8.279419%, 7.96051%, 32.002258%)" offset="0.398437"/><stop stop-opacity="1" stop-color="rgb(8.360291%, 8.03833%, 32.316589%)" offset="0.402344"/><stop stop-opacity="1" stop-color="rgb(8.441162%, 8.11615%, 32.63092%)" offset="0.40625"/><stop stop-opacity="1" stop-color="rgb(8.522034%, 8.19397%, 32.943726%)" offset="0.410156"/><stop stop-opacity="1" stop-color="rgb(8.602905%, 8.27179%, 33.258057%)" offset="0.414062"/><stop stop-opacity="1" stop-color="rgb(8.683777%, 8.349609%, 33.570862%)" offset="0.417969"/><stop stop-opacity="1" stop-color="rgb(8.766174%, 8.428955%, 33.885193%)" offset="0.421875"/><stop stop-opacity="1" stop-color="rgb(8.847046%, 8.506775%, 34.197998%)" offset="0.425781"/><stop stop-opacity="1" stop-color="rgb(8.927917%, 8.584595%, 34.512329%)" offset="0.429687"/><stop stop-opacity="1" stop-color="rgb(9.008789%, 8.662415%, 34.82666%)" offset="0.433594"/><stop stop-opacity="1" stop-color="rgb(9.091187%, 8.740234%, 35.140991%)" offset="0.4375"/><stop stop-opacity="1" stop-color="rgb(9.172058%, 8.818054%, 35.453796%)" offset="0.441406"/><stop stop-opacity="1" stop-color="rgb(9.25293%, 8.8974%, 35.768127%)" offset="0.445313"/><stop stop-opacity="1" stop-color="rgb(9.333801%, 8.97522%, 36.080933%)" offset="0.449219"/><stop stop-opacity="1" stop-color="rgb(9.414673%, 9.05304%, 36.395264%)" offset="0.453125"/><stop stop-opacity="1" stop-color="rgb(9.495544%, 9.130859%, 36.708069%)" offset="0.457031"/><stop stop-opacity="1" stop-color="rgb(9.577942%, 9.208679%, 37.0224%)" offset="0.460938"/><stop stop-opacity="1" stop-color="rgb(9.658813%, 9.286499%, 37.336731%)" offset="0.464844"/><stop stop-opacity="1" stop-color="rgb(9.739685%, 9.365845%, 37.651062%)" offset="0.46875"/><stop stop-opacity="1" stop-color="rgb(9.820557%, 9.443665%, 37.963867%)" offset="0.472656"/><stop stop-opacity="1" stop-color="rgb(9.902954%, 9.521484%, 38.278198%)" offset="0.476562"/><stop stop-opacity="1" stop-color="rgb(9.983826%, 9.599304%, 38.591003%)" offset="0.480469"/><stop stop-opacity="1" stop-color="rgb(10.064697%, 9.677124%, 38.905334%)" offset="0.484375"/><stop stop-opacity="1" stop-color="rgb(10.145569%, 9.754944%, 39.21814%)" offset="0.488281"/><stop stop-opacity="1" stop-color="rgb(10.22644%, 9.832764%, 39.532471%)" offset="0.492188"/><stop stop-opacity="1" stop-color="rgb(10.307312%, 9.910583%, 39.846802%)" offset="0.496094"/><stop stop-opacity="1" stop-color="rgb(10.389709%, 9.989929%, 40.161133%)" offset="0.5"/><stop stop-opacity="1" stop-color="rgb(10.470581%, 10.067749%, 40.473938%)" offset="0.503906"/><stop stop-opacity="1" stop-color="rgb(10.551453%, 10.145569%, 40.788269%)" offset="0.507812"/><stop stop-opacity="1" stop-color="rgb(10.632324%, 10.223389%, 41.101074%)" offset="0.511719"/><stop stop-opacity="1" stop-color="rgb(10.713196%, 10.301208%, 41.415405%)" offset="0.515625"/><stop stop-opacity="1" stop-color="rgb(10.794067%, 10.379028%, 41.72821%)" offset="0.519531"/><stop stop-opacity="1" stop-color="rgb(10.876465%, 10.458374%, 42.042542%)" offset="0.523438"/><stop stop-opacity="1" stop-color="rgb(10.957336%, 10.536194%, 42.356873%)" offset="0.527344"/><stop stop-opacity="1" stop-color="rgb(11.038208%, 10.614014%, 42.671204%)" offset="0.53125"/><stop stop-opacity="1" stop-color="rgb(11.11908%, 10.691833%, 42.984009%)" offset="0.535156"/><stop stop-opacity="1" stop-color="rgb(11.201477%, 10.769653%, 43.29834%)" offset="0.539062"/><stop stop-opacity="1" stop-color="rgb(11.282349%, 10.847473%, 43.611145%)" offset="0.542969"/><stop stop-opacity="1" stop-color="rgb(11.36322%, 10.926819%, 43.925476%)" offset="0.546875"/><stop stop-opacity="1" stop-color="rgb(11.444092%, 11.004639%, 44.238281%)" offset="0.550781"/><stop stop-opacity="1" stop-color="rgb(11.524963%, 11.082458%, 44.552612%)" offset="0.554688"/><stop stop-opacity="1" stop-color="rgb(11.605835%, 11.160278%, 44.866943%)" offset="0.558594"/><stop stop-opacity="1" stop-color="rgb(11.688232%, 11.238098%, 45.181274%)" offset="0.5625"/><stop stop-opacity="1" stop-color="rgb(11.769104%, 11.315918%, 45.49408%)" offset="0.566406"/><stop stop-opacity="1" stop-color="rgb(11.849976%, 11.393738%, 45.808411%)" offset="0.570312"/><stop stop-opacity="1" stop-color="rgb(11.930847%, 11.471558%, 46.121216%)" offset="0.574219"/><stop stop-opacity="1" stop-color="rgb(12.013245%, 11.550903%, 46.435547%)" offset="0.578125"/><stop stop-opacity="1" stop-color="rgb(12.094116%, 11.628723%, 46.748352%)" offset="0.582031"/><stop stop-opacity="1" stop-color="rgb(12.174988%, 11.706543%, 47.062683%)" offset="0.585937"/><stop stop-opacity="1" stop-color="rgb(12.255859%, 11.784363%, 47.377014%)" offset="0.589844"/><stop stop-opacity="1" stop-color="rgb(12.336731%, 11.862183%, 47.691345%)" offset="0.59375"/><stop stop-opacity="1" stop-color="rgb(12.417603%, 11.940002%, 48.00415%)" offset="0.597656"/><stop stop-opacity="1" stop-color="rgb(12.5%, 12.019348%, 48.318481%)" offset="0.601562"/><stop stop-opacity="1" stop-color="rgb(12.580872%, 12.097168%, 48.631287%)" offset="0.605469"/><stop stop-opacity="1" stop-color="rgb(12.661743%, 12.174988%, 48.945618%)" offset="0.609375"/><stop stop-opacity="1" stop-color="rgb(12.742615%, 12.252808%, 49.258423%)" offset="0.613281"/><stop stop-opacity="1" stop-color="rgb(12.825012%, 12.330627%, 49.572754%)" offset="0.617188"/><stop stop-opacity="1" stop-color="rgb(12.905884%, 12.408447%, 49.887085%)" offset="0.621094"/><stop stop-opacity="1" stop-color="rgb(12.986755%, 12.487793%, 50.201416%)" offset="0.625"/><stop stop-opacity="1" stop-color="rgb(13.067627%, 12.565613%, 50.514221%)" offset="0.628906"/><stop stop-opacity="1" stop-color="rgb(13.148499%, 12.643433%, 50.828552%)" offset="0.632812"/><stop stop-opacity="1" stop-color="rgb(13.22937%, 12.721252%, 51.141357%)" offset="0.636719"/><stop stop-opacity="1" stop-color="rgb(13.311768%, 12.799072%, 51.455688%)" offset="0.640625"/><stop stop-opacity="1" stop-color="rgb(13.392639%, 12.876892%, 51.768494%)" offset="0.644531"/><stop stop-opacity="1" stop-color="rgb(13.473511%, 12.956238%, 52.082825%)" offset="0.648438"/><stop stop-opacity="1" stop-color="rgb(13.554382%, 13.034058%, 52.397156%)" offset="0.652344"/><stop stop-opacity="1" stop-color="rgb(13.63678%, 13.111877%, 52.711487%)" offset="0.65625"/><stop stop-opacity="1" stop-color="rgb(13.717651%, 13.189697%, 53.024292%)" offset="0.660156"/><stop stop-opacity="1" stop-color="rgb(13.798523%, 13.267517%, 53.338623%)" offset="0.664063"/><stop stop-opacity="1" stop-color="rgb(13.879395%, 13.345337%, 53.651428%)" offset="0.667969"/><stop stop-opacity="1" stop-color="rgb(13.960266%, 13.423157%, 53.965759%)" offset="0.671875"/><stop stop-opacity="1" stop-color="rgb(14.041138%, 13.500977%, 54.278564%)" offset="0.675781"/><stop stop-opacity="1" stop-color="rgb(14.123535%, 13.580322%, 54.592896%)" offset="0.679688"/><stop stop-opacity="1" stop-color="rgb(14.204407%, 13.658142%, 54.907227%)" offset="0.683594"/><stop stop-opacity="1" stop-color="rgb(14.285278%, 13.735962%, 55.221558%)" offset="0.6875"/><stop stop-opacity="1" stop-color="rgb(14.36615%, 13.813782%, 55.534363%)" offset="0.691406"/><stop stop-opacity="1" stop-color="rgb(14.447021%, 13.891602%, 55.848694%)" offset="0.695313"/><stop stop-opacity="1" stop-color="rgb(14.527893%, 13.969421%, 56.161499%)" offset="0.699219"/><stop stop-opacity="1" stop-color="rgb(14.610291%, 14.048767%, 56.47583%)" offset="0.703125"/><stop stop-opacity="1" stop-color="rgb(14.691162%, 14.126587%, 56.788635%)" offset="0.707031"/><stop stop-opacity="1" stop-color="rgb(14.772034%, 14.204407%, 57.102966%)" offset="0.710938"/><stop stop-opacity="1" stop-color="rgb(14.852905%, 14.282227%, 57.417297%)" offset="0.714844"/><stop stop-opacity="1" stop-color="rgb(14.935303%, 14.360046%, 57.731628%)" offset="0.71875"/><stop stop-opacity="1" stop-color="rgb(15.016174%, 14.437866%, 58.044434%)" offset="0.722656"/><stop stop-opacity="1" stop-color="rgb(15.097046%, 14.517212%, 58.358765%)" offset="0.726563"/><stop stop-opacity="1" stop-color="rgb(15.177917%, 14.595032%, 58.67157%)" offset="0.730469"/><stop stop-opacity="1" stop-color="rgb(15.258789%, 14.672852%, 58.985901%)" offset="0.734375"/><stop stop-opacity="1" stop-color="rgb(15.339661%, 14.750671%, 59.298706%)" offset="0.738281"/><stop stop-opacity="1" stop-color="rgb(15.422058%, 14.828491%, 59.613037%)" offset="0.742188"/><stop stop-opacity="1" stop-color="rgb(15.50293%, 14.906311%, 59.927368%)" offset="0.746094"/><stop stop-opacity="1" stop-color="rgb(15.583801%, 14.984131%, 60.241699%)" offset="0.75"/><stop stop-opacity="1" stop-color="rgb(15.664673%, 15.061951%, 60.554504%)" offset="0.753906"/><stop stop-opacity="1" stop-color="rgb(15.74707%, 15.141296%, 60.868835%)" offset="0.757812"/><stop stop-opacity="1" stop-color="rgb(15.827942%, 15.219116%, 61.181641%)" offset="0.761719"/><stop stop-opacity="1" stop-color="rgb(15.908813%, 15.296936%, 61.495972%)" offset="0.765625"/><stop stop-opacity="1" stop-color="rgb(15.989685%, 15.374756%, 61.808777%)" offset="0.769531"/><stop stop-opacity="1" stop-color="rgb(16.070557%, 15.452576%, 62.123108%)" offset="0.773438"/><stop stop-opacity="1" stop-color="rgb(16.151428%, 15.530396%, 62.437439%)" offset="0.777344"/><stop stop-opacity="1" stop-color="rgb(16.233826%, 15.609741%, 62.75177%)" offset="0.78125"/><stop stop-opacity="1" stop-color="rgb(16.314697%, 15.687561%, 63.064575%)" offset="0.785156"/><stop stop-opacity="1" stop-color="rgb(16.395569%, 15.765381%, 63.378906%)" offset="0.789062"/><stop stop-opacity="1" stop-color="rgb(16.47644%, 15.843201%, 63.691711%)" offset="0.792969"/><stop stop-opacity="1" stop-color="rgb(16.558838%, 15.921021%, 64.006042%)" offset="0.796875"/><stop stop-opacity="1" stop-color="rgb(16.639709%, 15.99884%, 64.318848%)" offset="0.800781"/><stop stop-opacity="1" stop-color="rgb(16.720581%, 16.078186%, 64.633179%)" offset="0.804688"/><stop stop-opacity="1" stop-color="rgb(16.801453%, 16.156006%, 64.945984%)" offset="0.808594"/><stop stop-opacity="1" stop-color="rgb(16.882324%, 16.233826%, 65.260315%)" offset="0.8125"/><stop stop-opacity="1" stop-color="rgb(16.963196%, 16.311646%, 65.574646%)" offset="0.816406"/><stop stop-opacity="1" stop-color="rgb(17.045593%, 16.389465%, 65.888977%)" offset="0.820312"/><stop stop-opacity="1" stop-color="rgb(17.126465%, 16.467285%, 66.201782%)" offset="0.824219"/><stop stop-opacity="1" stop-color="rgb(17.207336%, 16.545105%, 66.516113%)" offset="0.828125"/><stop stop-opacity="1" stop-color="rgb(17.288208%, 16.622925%, 66.828918%)" offset="0.832031"/><stop stop-opacity="1" stop-color="rgb(17.370605%, 16.702271%, 67.14325%)" offset="0.835938"/><stop stop-opacity="1" stop-color="rgb(17.451477%, 16.78009%, 67.456055%)" offset="0.839844"/><stop stop-opacity="1" stop-color="rgb(17.532349%, 16.85791%, 67.770386%)" offset="0.84375"/><stop stop-opacity="1" stop-color="rgb(17.61322%, 16.93573%, 68.084717%)" offset="0.847656"/><stop stop-opacity="1" stop-color="rgb(17.694092%, 17.01355%, 68.399048%)" offset="0.851562"/><stop stop-opacity="1" stop-color="rgb(17.774963%, 17.09137%, 68.711853%)" offset="0.855469"/><stop stop-opacity="1" stop-color="rgb(17.857361%, 17.170715%, 69.026184%)" offset="0.859375"/><stop stop-opacity="1" stop-color="rgb(17.938232%, 17.248535%, 69.338989%)" offset="0.863281"/><stop stop-opacity="1" stop-color="rgb(18.019104%, 17.326355%, 69.65332%)" offset="0.867188"/><stop stop-opacity="1" stop-color="rgb(18.099976%, 17.404175%, 69.966125%)" offset="0.871094"/><stop stop-opacity="1" stop-color="rgb(18.182373%, 17.481995%, 70.280457%)" offset="0.875"/><stop stop-opacity="1" stop-color="rgb(18.263245%, 17.559814%, 70.594788%)" offset="0.878906"/><stop stop-opacity="1" stop-color="rgb(18.344116%, 17.63916%, 70.909119%)" offset="0.882812"/><stop stop-opacity="1" stop-color="rgb(18.424988%, 17.71698%, 71.221924%)" offset="0.886719"/><stop stop-opacity="1" stop-color="rgb(18.505859%, 17.7948%, 71.536255%)" offset="0.890625"/><stop stop-opacity="1" stop-color="rgb(18.586731%, 17.87262%, 71.84906%)" offset="0.894531"/><stop stop-opacity="1" stop-color="rgb(18.669128%, 17.950439%, 72.163391%)" offset="0.898438"/><stop stop-opacity="1" stop-color="rgb(18.75%, 18.028259%, 72.476196%)" offset="0.902344"/><stop stop-opacity="1" stop-color="rgb(18.830872%, 18.106079%, 72.790527%)" offset="0.90625"/><stop stop-opacity="1" stop-color="rgb(18.911743%, 18.183899%, 73.104858%)" offset="0.910156"/><stop stop-opacity="1" stop-color="rgb(18.992615%, 18.263245%, 73.419189%)" offset="0.914062"/><stop stop-opacity="1" stop-color="rgb(19.073486%, 18.341064%, 73.731995%)" offset="0.917969"/><stop stop-opacity="1" stop-color="rgb(19.155884%, 18.418884%, 74.046326%)" offset="0.921875"/><stop stop-opacity="1" stop-color="rgb(19.236755%, 18.496704%, 74.359131%)" offset="0.925781"/><stop stop-opacity="1" stop-color="rgb(19.317627%, 18.574524%, 74.673462%)" offset="0.929687"/><stop stop-opacity="1" stop-color="rgb(19.398499%, 18.652344%, 74.986267%)" offset="0.933594"/><stop stop-opacity="1" stop-color="rgb(19.480896%, 18.731689%, 75.300598%)" offset="0.9375"/><stop stop-opacity="1" stop-color="rgb(19.561768%, 18.809509%, 75.614929%)" offset="0.941406"/><stop stop-opacity="1" stop-color="rgb(19.642639%, 18.887329%, 75.92926%)" offset="0.945312"/><stop stop-opacity="1" stop-color="rgb(19.723511%, 18.965149%, 76.242065%)" offset="0.949219"/><stop stop-opacity="1" stop-color="rgb(19.804382%, 19.042969%, 76.556396%)" offset="0.953125"/><stop stop-opacity="1" stop-color="rgb(19.885254%, 19.120789%, 76.869202%)" offset="0.957031"/><stop stop-opacity="1" stop-color="rgb(19.967651%, 19.200134%, 77.183533%)" offset="0.960937"/><stop stop-opacity="1" stop-color="rgb(20.048523%, 19.277954%, 77.496338%)" offset="0.964844"/><stop stop-opacity="1" stop-color="rgb(20.129395%, 19.355774%, 77.810669%)" offset="0.96875"/><stop stop-opacity="1" stop-color="rgb(20.210266%, 19.433594%, 78.125%)" offset="0.972656"/><stop stop-opacity="1" stop-color="rgb(20.292664%, 19.511414%, 78.439331%)" offset="0.976562"/><stop stop-opacity="1" stop-color="rgb(20.373535%, 19.589233%, 78.752136%)" offset="0.980469"/><stop stop-opacity="1" stop-color="rgb(20.454407%, 19.667053%, 79.066467%)" offset="0.984375"/><stop stop-opacity="1" stop-color="rgb(20.535278%, 19.744873%, 79.379272%)" offset="0.988281"/><stop stop-opacity="1" stop-color="rgb(20.61615%, 19.824219%, 79.693604%)" offset="0.992188"/><stop stop-opacity="1" stop-color="rgb(20.697021%, 19.902039%, 80.006409%)" offset="0.996094"/><stop stop-opacity="1" stop-color="rgb(20.779419%, 19.979858%, 80.32074%)" offset="1"/></linearGradient><clipPath id="de6d2f26d4"><path d="M 13.6875 4.789062 L 32.824219 4.789062 L 32.824219 30.304688 L 13.6875 30.304688 Z M 13.6875 4.789062 " clip-rule="nonzero"/></clipPath><clipPath id="8abb8aa584"><path d="M 32.824219 23.925781 L 32.824219 4.789062 L 13.6875 11.167969 L 13.6875 30.304688 Z M 32.824219 23.925781 " clip-rule="nonzero"/></clipPath><clipPath id="1e005810ee"><path d="M 4.898438 1.6875 L 23.257812 1.6875 L 23.257812 26.214844 L 4.898438 26.214844 Z M 4.898438 1.6875 " clip-rule="nonzero"/></clipPath><clipPath id="a70309bf63"><path d="M 4.898438 7.855469 L 4.898438 26.214844 L 23.257812 20.097656 L 23.257812 1.734375 Z M 4.898438 7.855469 " clip-rule="nonzero"/></clipPath><clipPath id="5409a32d61"><path d="M 4.898438 1.851562 L 23.25 1.851562 L 23.25 26.210938 L 4.898438 26.210938 Z M 4.898438 1.851562 " clip-rule="nonzero"/></clipPath><clipPath id="dd00ce4fdf"><path d="M 4.898438 7.859375 L 4.898438 26.210938 L 23.25 20.09375 L 23.25 1.742188 Z M 4.898438 7.859375 " clip-rule="nonzero"/></clipPath></defs><g clip-path="url(#4dde339f72)"><g clip-path="url(#e8e0dd0ebf)"><path fill="url(#f831c604f8)" d="M 32.824219 4.78125 L 13.675781 4.78125 L 13.675781 30.289062 L 32.824219 30.289062 Z M 32.824219 4.78125 " fill-rule="nonzero"/></g></g><g clip-path="url(#de6d2f26d4)"><g clip-path="url(#8abb8aa584)"><path stroke-linecap="butt" transform="matrix(0, 0.738281, -0.738281, 0, 32.824167, 4.788128)" fill="none" stroke-linejoin="miter" d="M 25.921902 -0.000070741 L 0.00126614 -0.000070741 L 8.641478 25.920565 L 34.562114 25.920565 Z M 25.921902 -0.000070741 " stroke="#ffffff" stroke-width="6" stroke-opacity="1" stroke-miterlimit="4"/></g></g><g clip-path="url(#1e005810ee)"><g clip-path="url(#a70309bf63)"><path fill="#004aad" d="M 4.898438 26.214844 L 4.898438 1.757812 L 23.257812 1.757812 L 23.257812 26.214844 Z M 4.898438 26.214844 " fill-opacity="1" fill-rule="nonzero"/></g></g><g clip-path="url(#5409a32d61)"><g clip-path="url(#dd00ce4fdf)"><path stroke-linecap="butt" transform="matrix(0, -0.738281, 0.738281, 0, 4.898562, 26.212634)" fill="none" stroke-linejoin="miter" d="M 24.859442 -0.00016926 L 0.00229835 -0.00016926 L 8.288013 24.856975 L 33.145157 24.856975 Z M 24.859442 -0.00016926 " stroke="#ffffff" stroke-width="6" stroke-opacity="1" stroke-miterlimit="4"/></g></g><g fill="#000000" fill-opacity="1"><g transform="translate(40.550667, 20.205892)"><g><path d="M 1.125 -12.96875 C 1.09375 -12.976562 1.109375 -12.988281 1.171875 -13 C 1.234375 -13.019531 1.421875 -13.03125 1.734375 -13.03125 C 2.054688 -13.03125 2.515625 -13.03125 3.109375 -13.03125 L 5.1875 -13.03125 L 5.1875 1.46875 L 1.40625 1.46875 L 1.40625 -12.671875 L 1.3125 -12.796875 C 1.269531 -12.867188 1.207031 -12.925781 1.125 -12.96875 Z M 5.703125 -13.03125 L 7.28125 -13.03125 C 7.707031 -13.03125 8.054688 -13.03125 8.328125 -13.03125 C 8.609375 -13.03125 8.816406 -13.019531 8.953125 -13 C 9.535156 -12.96875 10.070312 -12.789062 10.5625 -12.46875 C 11.0625 -12.15625 11.460938 -11.765625 11.765625 -11.296875 C 12.234375 -10.585938 12.453125 -9.828125 12.421875 -9.015625 C 12.410156 -8.703125 12.375 -8.4375 12.3125 -8.21875 C 12.15625 -7.757812 11.882812 -7.359375 11.5 -7.015625 C 11.113281 -6.671875 10.675781 -6.460938 10.1875 -6.390625 C 9.988281 -6.359375 9.878906 -6.332031 9.859375 -6.3125 C 9.859375 -6.289062 9.914062 -6.28125 10.03125 -6.28125 C 10.457031 -6.28125 10.835938 -6.203125 11.171875 -6.046875 C 11.503906 -5.890625 11.789062 -5.679688 12.03125 -5.421875 C 12.269531 -5.160156 12.460938 -4.851562 12.609375 -4.5 C 12.753906 -4.15625 12.847656 -3.785156 12.890625 -3.390625 C 12.953125 -2.609375 12.8125 -1.875 12.46875 -1.1875 C 12.195312 -0.613281 11.816406 -0.125 11.328125 0.28125 C 10.847656 0.695312 10.316406 1.007812 9.734375 1.21875 C 9.578125 1.28125 9.425781 1.328125 9.28125 1.359375 C 9.144531 1.390625 9.019531 1.410156 8.90625 1.421875 C 8.769531 1.429688 8.566406 1.4375 8.296875 1.4375 C 8.035156 1.4375 7.6875 1.4375 7.25 1.4375 L 5.703125 1.46875 L 5.703125 -1.1875 L 6.640625 -1.1875 C 6.898438 -1.1875 7.109375 -1.191406 7.265625 -1.203125 C 7.429688 -1.210938 7.5625 -1.222656 7.65625 -1.234375 C 7.789062 -1.242188 7.957031 -1.296875 8.15625 -1.390625 C 8.269531 -1.460938 8.382812 -1.566406 8.5 -1.703125 C 8.625 -1.835938 8.710938 -1.96875 8.765625 -2.09375 C 8.890625 -2.363281 8.945312 -2.675781 8.9375 -3.03125 C 8.925781 -3.394531 8.859375 -3.707031 8.734375 -3.96875 C 8.660156 -4.082031 8.5625 -4.195312 8.4375 -4.3125 C 8.320312 -4.425781 8.210938 -4.507812 8.109375 -4.5625 C 7.929688 -4.664062 7.769531 -4.722656 7.625 -4.734375 C 7.550781 -4.753906 7.429688 -4.765625 7.265625 -4.765625 C 7.109375 -4.765625 6.898438 -4.765625 6.640625 -4.765625 L 5.703125 -4.765625 L 5.703125 -7.59375 L 6.46875 -7.59375 C 6.71875 -7.59375 6.914062 -7.59375 7.0625 -7.59375 C 7.21875 -7.59375 7.328125 -7.597656 7.390625 -7.609375 C 7.773438 -7.703125 8.070312 -7.898438 8.28125 -8.203125 C 8.5 -8.515625 8.578125 -8.867188 8.515625 -9.265625 C 8.453125 -9.554688 8.351562 -9.78125 8.21875 -9.9375 C 8.082031 -10.101562 7.921875 -10.222656 7.734375 -10.296875 C 7.554688 -10.378906 7.359375 -10.425781 7.140625 -10.4375 C 6.921875 -10.457031 6.691406 -10.46875 6.453125 -10.46875 L 5.703125 -10.46875 Z M 5.703125 -13.03125 "/></g></g></g><g fill="#000000" fill-opacity="1"><g transform="translate(54.225261, 20.205892)"><g><path d="M 5.296875 -9.8125 C 5.691406 -9.8125 6.113281 -9.757812 6.5625 -9.65625 C 7.019531 -9.550781 7.394531 -9.351562 7.6875 -9.0625 L 7.953125 -8.796875 L 7.953125 -9.640625 L 11.828125 -9.640625 L 11.828125 -4.515625 C 11.828125 -4.191406 11.828125 -3.757812 11.828125 -3.21875 C 11.835938 -2.675781 11.835938 -2.113281 11.828125 -1.53125 C 11.828125 -0.945312 11.8125 -0.382812 11.78125 0.15625 C 11.757812 0.707031 11.71875 1.144531 11.65625 1.46875 C 11.507812 2.15625 11.269531 2.753906 10.9375 3.265625 C 10.601562 3.773438 10.191406 4.191406 9.703125 4.515625 C 9.222656 4.847656 8.679688 5.085938 8.078125 5.234375 C 7.472656 5.390625 6.828125 5.46875 6.140625 5.46875 C 5.484375 5.46875 4.84375 5.394531 4.21875 5.25 C 3.59375 5.113281 3.007812 4.847656 2.46875 4.453125 C 2 4.109375 1.613281 3.691406 1.3125 3.203125 C 1.007812 2.710938 0.859375 2.164062 0.859375 1.5625 L 4.890625 1.5625 C 4.953125 1.9375 5.117188 2.210938 5.390625 2.390625 C 5.660156 2.566406 5.96875 2.65625 6.3125 2.65625 C 6.664062 2.65625 6.945312 2.585938 7.15625 2.453125 C 7.363281 2.316406 7.523438 2.140625 7.640625 1.921875 C 7.765625 1.703125 7.847656 1.453125 7.890625 1.171875 C 7.929688 0.890625 7.953125 0.601562 7.953125 0.3125 L 7.953125 0.109375 L 7.765625 0.3125 C 7.453125 0.613281 7.046875 0.851562 6.546875 1.03125 C 6.046875 1.207031 5.519531 1.296875 4.96875 1.296875 C 4.59375 1.296875 4.191406 1.210938 3.765625 1.046875 C 3.347656 0.890625 2.972656 0.675781 2.640625 0.40625 C 1.535156 -0.476562 0.921875 -1.945312 0.796875 -4 C 0.691406 -5.632812 1.03125 -6.953125 1.8125 -7.953125 C 2.207031 -8.492188 2.71875 -8.9375 3.34375 -9.28125 C 3.96875 -9.632812 4.617188 -9.8125 5.296875 -9.8125 Z M 6.5625 -6.953125 C 6.425781 -6.953125 6.300781 -6.941406 6.1875 -6.921875 C 6.070312 -6.898438 5.972656 -6.863281 5.890625 -6.8125 C 5.804688 -6.78125 5.707031 -6.707031 5.59375 -6.59375 C 5.488281 -6.476562 5.410156 -6.367188 5.359375 -6.265625 C 5.148438 -5.898438 5.015625 -5.363281 4.953125 -4.65625 C 4.921875 -4.300781 4.914062 -3.96875 4.9375 -3.65625 C 4.96875 -3.351562 5.019531 -3.0625 5.09375 -2.78125 C 5.21875 -2.238281 5.457031 -1.867188 5.8125 -1.671875 C 5.914062 -1.609375 5.992188 -1.570312 6.046875 -1.5625 C 6.109375 -1.5625 6.25 -1.5625 6.46875 -1.5625 C 6.882812 -1.5625 7.195312 -1.65625 7.40625 -1.84375 C 7.613281 -2.03125 7.769531 -2.328125 7.875 -2.734375 C 7.925781 -2.878906 7.953125 -3.445312 7.953125 -4.4375 C 7.953125 -5.40625 7.925781 -5.945312 7.875 -6.0625 C 7.632812 -6.65625 7.195312 -6.953125 6.5625 -6.953125 Z M 6.5625 -6.953125 "/></g></g></g><g fill="#000000" fill-opacity="1"><g transform="translate(67.379835, 20.205892)"><g/></g></g><g fill="#000000" fill-opacity="1"><g transform="translate(71.231832, 20.205892)"><g><path d="M 5.390625 -6.921875 L 6.515625 -6.921875 C 6.835938 -6.921875 7.09375 -6.921875 7.28125 -6.921875 C 7.476562 -6.929688 7.613281 -6.941406 7.6875 -6.953125 C 7.832031 -6.960938 8.007812 -7.019531 8.21875 -7.125 C 8.488281 -7.269531 8.691406 -7.484375 8.828125 -7.765625 C 9.003906 -8.160156 9.035156 -8.582031 8.921875 -9.03125 C 8.804688 -9.507812 8.539062 -9.828125 8.125 -9.984375 L 7.9375 -10.09375 L 6.671875 -10.109375 L 5.8125 -10.109375 L 5.8125 -13.03125 C 6.46875 -13.03125 7 -13.03125 7.40625 -13.03125 C 7.8125 -13.03125 8.128906 -13.03125 8.359375 -13.03125 C 8.585938 -13.03125 8.753906 -13.023438 8.859375 -13.015625 C 8.960938 -13.003906 9.035156 -13 9.078125 -13 C 10.171875 -12.914062 11.039062 -12.601562 11.6875 -12.0625 C 12.34375 -11.53125 12.773438 -10.722656 12.984375 -9.640625 C 13.148438 -8.578125 13.03125 -7.691406 12.625 -6.984375 C 12.21875 -6.285156 11.570312 -5.863281 10.6875 -5.71875 L 10.421875 -5.703125 L 10.671875 -5.640625 C 11.515625 -5.515625 12.09375 -5.097656 12.40625 -4.390625 C 12.5 -4.210938 12.570312 -3.945312 12.625 -3.59375 C 12.6875 -3.25 12.742188 -2.804688 12.796875 -2.265625 C 12.953125 -0.265625 13.03125 0.929688 13.03125 1.328125 L 13.03125 1.46875 L 8.9375 1.46875 L 8.90625 1.296875 C 8.882812 1.210938 8.867188 1.078125 8.859375 0.890625 C 8.859375 0.703125 8.847656 0.46875 8.828125 0.1875 C 8.710938 -1.925781 8.554688 -3.191406 8.359375 -3.609375 C 8.296875 -3.734375 8.078125 -3.832031 7.703125 -3.90625 C 7.566406 -3.9375 7.140625 -3.960938 6.421875 -3.984375 L 5.390625 -3.984375 L 5.390625 1.46875 L 1.484375 1.46875 L 1.484375 -5.546875 C 1.492188 -7.242188 1.492188 -8.59375 1.484375 -9.59375 C 1.484375 -10.59375 1.484375 -11.269531 1.484375 -11.625 C 1.453125 -12.269531 1.425781 -12.617188 1.40625 -12.671875 C 1.34375 -12.828125 1.238281 -12.9375 1.09375 -13 C 1.175781 -13 1.269531 -13 1.375 -13 C 1.46875 -13 1.582031 -13.003906 1.71875 -13.015625 C 1.851562 -13.023438 2.015625 -13.03125 2.203125 -13.03125 L 5.390625 -13.03125 Z M 5.390625 -6.921875 "/></g></g></g><g fill="#000000" fill-opacity="1"><g transform="translate(85.50349, 20.205892)"><g><path d="M 5.484375 -9.765625 C 5.585938 -9.773438 5.71875 -9.78125 5.875 -9.78125 C 6.03125 -9.78125 6.21875 -9.78125 6.4375 -9.78125 C 6.65625 -9.769531 6.84375 -9.757812 7 -9.75 C 7.164062 -9.738281 7.304688 -9.71875 7.421875 -9.6875 C 8.191406 -9.5625 8.835938 -9.320312 9.359375 -8.96875 C 9.890625 -8.613281 10.3125 -8.175781 10.625 -7.65625 C 10.9375 -7.144531 11.164062 -6.578125 11.3125 -5.953125 C 11.46875 -5.328125 11.550781 -4.664062 11.5625 -3.96875 L 11.5625 -3.359375 L 8.171875 -3.328125 L 4.78125 -3.328125 L 4.734375 -3.171875 C 4.722656 -3.046875 4.738281 -2.804688 4.78125 -2.453125 C 4.832031 -2.023438 4.953125 -1.671875 5.140625 -1.390625 C 5.335938 -1.109375 5.679688 -0.96875 6.171875 -0.96875 C 6.472656 -0.96875 6.742188 -1.03125 6.984375 -1.15625 C 7.222656 -1.28125 7.394531 -1.5 7.5 -1.8125 C 7.5625 -1.96875 7.597656 -2.046875 7.609375 -2.046875 C 7.660156 -2.066406 8.289062 -2.078125 9.5 -2.078125 C 10.71875 -2.078125 11.335938 -2.066406 11.359375 -2.046875 C 11.398438 -2.046875 11.359375 -1.890625 11.234375 -1.578125 C 11.003906 -0.984375 10.710938 -0.484375 10.359375 -0.078125 C 10.015625 0.316406 9.625 0.640625 9.1875 0.890625 C 8.75 1.140625 8.269531 1.316406 7.75 1.421875 C 7.226562 1.535156 6.675781 1.59375 6.09375 1.59375 C 5.5625 1.59375 5.019531 1.535156 4.46875 1.421875 C 3.925781 1.304688 3.4375 1.109375 3 0.828125 C 2.9375 0.785156 2.847656 0.71875 2.734375 0.625 C 2.628906 0.53125 2.519531 0.425781 2.40625 0.3125 C 2.300781 0.195312 2.195312 0.0820312 2.09375 -0.03125 C 2 -0.15625 1.925781 -0.253906 1.875 -0.328125 C 1.46875 -0.867188 1.171875 -1.5 0.984375 -2.21875 C 0.804688 -2.945312 0.742188 -3.703125 0.796875 -4.484375 C 0.910156 -6.015625 1.363281 -7.234375 2.15625 -8.140625 C 2.957031 -9.046875 4.066406 -9.585938 5.484375 -9.765625 Z M 6.625 -7.296875 C 6.5625 -7.316406 6.492188 -7.328125 6.421875 -7.328125 C 6.347656 -7.335938 6.28125 -7.34375 6.21875 -7.34375 C 5.675781 -7.34375 5.304688 -7.179688 5.109375 -6.859375 C 4.910156 -6.535156 4.785156 -6.128906 4.734375 -5.640625 L 4.703125 -5.390625 L 7.78125 -5.390625 L 7.765625 -5.53125 C 7.753906 -5.800781 7.695312 -6.070312 7.59375 -6.34375 C 7.488281 -6.625 7.378906 -6.84375 7.265625 -7 C 7.140625 -7.164062 6.925781 -7.265625 6.625 -7.296875 Z M 6.625 -7.296875 "/></g></g></g><g fill="#000000" fill-opacity="1"><g transform="translate(97.829888, 20.205892)"><g><path d="M 7.25 -9.734375 C 7.53125 -9.765625 7.867188 -9.773438 8.265625 -9.765625 C 8.671875 -9.753906 9 -9.71875 9.25 -9.65625 C 9.875 -9.488281 10.382812 -9.113281 10.78125 -8.53125 C 10.832031 -8.425781 10.863281 -8.375 10.875 -8.375 C 10.894531 -8.375 10.984375 -8.453125 11.140625 -8.609375 C 11.765625 -9.210938 12.523438 -9.585938 13.421875 -9.734375 C 14.046875 -9.816406 14.640625 -9.78125 15.203125 -9.625 C 15.765625 -9.476562 16.21875 -9.226562 16.5625 -8.875 C 17.050781 -8.394531 17.40625 -7.664062 17.625 -6.6875 C 17.65625 -6.507812 17.675781 -5.113281 17.6875 -2.5 L 17.703125 1.46875 L 13.828125 1.46875 L 13.828125 -6.03125 L 13.734375 -6.265625 C 13.628906 -6.585938 13.457031 -6.769531 13.21875 -6.8125 C 12.769531 -6.957031 12.390625 -6.953125 12.078125 -6.796875 C 11.816406 -6.671875 11.597656 -6.335938 11.421875 -5.796875 L 11.34375 -5.5625 L 11.34375 -2.078125 L 11.328125 1.46875 L 7.4375 1.46875 L 7.4375 -6.171875 L 7.375 -6.359375 C 7.25 -6.691406 6.960938 -6.882812 6.515625 -6.9375 C 6.140625 -6.957031 5.832031 -6.851562 5.59375 -6.625 C 5.382812 -6.40625 5.234375 -6.117188 5.140625 -5.765625 C 5.128906 -5.703125 5.117188 -5.625 5.109375 -5.53125 C 5.097656 -5.4375 5.09375 -5.304688 5.09375 -5.140625 C 5.070312 -4.972656 5.0625 -4.632812 5.0625 -4.125 C 5.0625 -3.613281 5.0625 -2.921875 5.0625 -2.046875 L 5.0625 1.46875 L 1.234375 1.46875 L 1.234375 -5.09375 C 1.234375 -6.21875 1.234375 -7.09375 1.234375 -7.71875 C 1.234375 -8.34375 1.226562 -8.75 1.21875 -8.9375 C 1.1875 -9.3125 1.132812 -9.519531 1.0625 -9.5625 C 1.050781 -9.570312 1.035156 -9.578125 1.015625 -9.578125 C 0.984375 -9.597656 1.003906 -9.617188 1.078125 -9.640625 L 5.0625 -9.640625 L 5.0625 -8.328125 L 5.203125 -8.515625 C 5.660156 -9.191406 6.34375 -9.597656 7.25 -9.734375 Z M 7.25 -9.734375 "/></g></g></g><g fill="#000000" fill-opacity="1"><g transform="translate(116.781721, 20.205892)"><g><path d="M 6.53125 -9.75 L 6.875 -9.734375 C 7.644531 -9.691406 8.332031 -9.53125 8.9375 -9.25 C 9.550781 -8.96875 10.070312 -8.585938 10.5 -8.109375 C 10.9375 -7.628906 11.273438 -7.078125 11.515625 -6.453125 C 11.753906 -5.828125 11.890625 -5.140625 11.921875 -4.390625 C 11.972656 -3.191406 11.765625 -2.109375 11.296875 -1.140625 C 10.617188 0.210938 9.519531 1.0625 8 1.40625 C 7.53125 1.53125 7.101562 1.59375 6.71875 1.59375 L 6.5625 1.59375 L 6.546875 1.015625 C 6.554688 0.816406 6.5625 0.609375 6.5625 0.390625 C 6.5625 0.179688 6.5625 -0.0390625 6.5625 -0.28125 C 6.5625 -0.769531 6.578125 -1.015625 6.609375 -1.015625 C 6.816406 -1.015625 7.054688 -1.113281 7.328125 -1.3125 C 7.804688 -1.59375 8.117188 -2.207031 8.265625 -3.15625 C 8.273438 -3.257812 8.28125 -3.390625 8.28125 -3.546875 C 8.289062 -3.710938 8.289062 -3.90625 8.28125 -4.125 C 8.269531 -4.351562 8.253906 -4.546875 8.234375 -4.703125 C 8.222656 -4.859375 8.207031 -4.988281 8.1875 -5.09375 C 8.113281 -5.5625 7.96875 -5.972656 7.75 -6.328125 C 7.539062 -6.679688 7.171875 -6.90625 6.640625 -7 L 6.53125 -7.015625 Z M 5.359375 -9.703125 C 5.421875 -9.722656 5.492188 -9.734375 5.578125 -9.734375 C 5.660156 -9.734375 5.753906 -9.738281 5.859375 -9.75 L 6.109375 -9.75 L 6.109375 -8.578125 C 6.109375 -8.203125 6.109375 -7.898438 6.109375 -7.671875 C 6.109375 -7.441406 6.101562 -7.28125 6.09375 -7.1875 L 6.09375 -7.015625 L 5.875 -6.953125 C 5.269531 -6.847656 4.859375 -6.460938 4.640625 -5.796875 C 4.535156 -5.503906 4.46875 -5.164062 4.4375 -4.78125 C 4.414062 -4.40625 4.421875 -3.992188 4.453125 -3.546875 C 4.472656 -3.296875 4.503906 -3.046875 4.546875 -2.796875 C 4.585938 -2.546875 4.65625 -2.304688 4.75 -2.078125 C 4.851562 -1.859375 4.988281 -1.664062 5.15625 -1.5 C 5.320312 -1.34375 5.539062 -1.226562 5.8125 -1.15625 L 6.0625 -1.09375 L 6.09375 0.234375 L 6.09375 1.5625 L 5.71875 1.5625 C 4.695312 1.5625 3.765625 1.28125 2.921875 0.71875 C 1.734375 -0.09375 1.035156 -1.414062 0.828125 -3.25 C 0.648438 -4.738281 0.878906 -6.050781 1.515625 -7.1875 C 1.898438 -7.875 2.429688 -8.441406 3.109375 -8.890625 C 3.796875 -9.347656 4.546875 -9.617188 5.359375 -9.703125 Z M 5.359375 -9.703125 "/></g></g></g><g fill="#000000" fill-opacity="1"><g transform="translate(129.493321, 20.205892)"><g><path d="M 0.546875 -9.53125 L 0.390625 -9.640625 L 5.203125 -9.640625 L 5.265625 -9.453125 C 5.453125 -8.703125 5.648438 -7.953125 5.859375 -7.203125 C 6.066406 -6.460938 6.28125 -5.710938 6.5 -4.953125 C 6.632812 -4.398438 6.75 -3.960938 6.84375 -3.640625 C 6.945312 -3.316406 7.007812 -3.101562 7.03125 -3 C 7.0625 -2.882812 7.082031 -2.832031 7.09375 -2.84375 C 7.113281 -2.882812 7.398438 -4.023438 7.953125 -6.265625 L 8.796875 -9.640625 L 10.71875 -9.640625 C 11.988281 -9.640625 12.625 -9.628906 12.625 -9.609375 C 12.601562 -9.546875 12.582031 -9.46875 12.5625 -9.375 C 12.53125 -9.300781 12.5 -9.207031 12.46875 -9.09375 C 12.4375 -8.976562 12.394531 -8.835938 12.34375 -8.671875 C 11.925781 -7.191406 11.515625 -5.734375 11.109375 -4.296875 C 10.710938 -2.859375 10.320312 -1.421875 9.9375 0.015625 C 9.90625 0.171875 9.867188 0.328125 9.828125 0.484375 C 9.785156 0.640625 9.742188 0.78125 9.703125 0.90625 C 9.671875 1.050781 9.632812 1.191406 9.59375 1.328125 L 9.578125 1.46875 L 4.78125 1.46875 L 4.390625 0.21875 C 4.179688 -0.457031 3.957031 -1.164062 3.71875 -1.90625 C 3.488281 -2.65625 3.234375 -3.445312 2.953125 -4.28125 C 2.921875 -4.40625 2.867188 -4.570312 2.796875 -4.78125 C 2.734375 -4.988281 2.648438 -5.238281 2.546875 -5.53125 C 2.441406 -5.820312 2.359375 -6.0625 2.296875 -6.25 C 2.242188 -6.445312 2.203125 -6.578125 2.171875 -6.640625 C 1.773438 -7.867188 1.539062 -8.546875 1.46875 -8.671875 C 1.238281 -9.078125 0.929688 -9.363281 0.546875 -9.53125 Z M 0.546875 -9.53125 "/></g></g></g><g fill="#000000" fill-opacity="1"><g transform="translate(142.493816, 20.205892)"><g><path d="M 5.484375 -9.765625 C 5.585938 -9.773438 5.71875 -9.78125 5.875 -9.78125 C 6.03125 -9.78125 6.21875 -9.78125 6.4375 -9.78125 C 6.65625 -9.769531 6.84375 -9.757812 7 -9.75 C 7.164062 -9.738281 7.304688 -9.71875 7.421875 -9.6875 C 8.191406 -9.5625 8.835938 -9.320312 9.359375 -8.96875 C 9.890625 -8.613281 10.3125 -8.175781 10.625 -7.65625 C 10.9375 -7.144531 11.164062 -6.578125 11.3125 -5.953125 C 11.46875 -5.328125 11.550781 -4.664062 11.5625 -3.96875 L 11.5625 -3.359375 L 8.171875 -3.328125 L 4.78125 -3.328125 L 4.734375 -3.171875 C 4.722656 -3.046875 4.738281 -2.804688 4.78125 -2.453125 C 4.832031 -2.023438 4.953125 -1.671875 5.140625 -1.390625 C 5.335938 -1.109375 5.679688 -0.96875 6.171875 -0.96875 C 6.472656 -0.96875 6.742188 -1.03125 6.984375 -1.15625 C 7.222656 -1.28125 7.394531 -1.5 7.5 -1.8125 C 7.5625 -1.96875 7.597656 -2.046875 7.609375 -2.046875 C 7.660156 -2.066406 8.289062 -2.078125 9.5 -2.078125 C 10.71875 -2.078125 11.335938 -2.066406 11.359375 -2.046875 C 11.398438 -2.046875 11.359375 -1.890625 11.234375 -1.578125 C 11.003906 -0.984375 10.710938 -0.484375 10.359375 -0.078125 C 10.015625 0.316406 9.625 0.640625 9.1875 0.890625 C 8.75 1.140625 8.269531 1.316406 7.75 1.421875 C 7.226562 1.535156 6.675781 1.59375 6.09375 1.59375 C 5.5625 1.59375 5.019531 1.535156 4.46875 1.421875 C 3.925781 1.304688 3.4375 1.109375 3 0.828125 C 2.9375 0.785156 2.847656 0.71875 2.734375 0.625 C 2.628906 0.53125 2.519531 0.425781 2.40625 0.3125 C 2.300781 0.195312 2.195312 0.0820312 2.09375 -0.03125 C 2 -0.15625 1.925781 -0.253906 1.875 -0.328125 C 1.46875 -0.867188 1.171875 -1.5 0.984375 -2.21875 C 0.804688 -2.945312 0.742188 -3.703125 0.796875 -4.484375 C 0.910156 -6.015625 1.363281 -7.234375 2.15625 -8.140625 C 2.957031 -9.046875 4.066406 -9.585938 5.484375 -9.765625 Z M 6.625 -7.296875 C 6.5625 -7.316406 6.492188 -7.328125 6.421875 -7.328125 C 6.347656 -7.335938 6.28125 -7.34375 6.21875 -7.34375 C 5.675781 -7.34375 5.304688 -7.179688 5.109375 -6.859375 C 4.910156 -6.535156 4.785156 -6.128906 4.734375 -5.640625 L 4.703125 -5.390625 L 7.78125 -5.390625 L 7.765625 -5.53125 C 7.753906 -5.800781 7.695312 -6.070312 7.59375 -6.34375 C 7.488281 -6.625 7.378906 -6.84375 7.265625 -7 C 7.140625 -7.164062 6.925781 -7.265625 6.625 -7.296875 Z M 6.625 -7.296875 "/></g></g></g><g fill="#000000" fill-opacity="1"><g transform="translate(154.820214, 20.205892)"><g><path d="M 8.28125 -9.8125 L 8.484375 -9.8125 L 8.453125 -8.1875 L 8.453125 -6.203125 L 8.15625 -6.21875 C 7.476562 -6.257812 6.90625 -6.160156 6.4375 -5.921875 C 6.164062 -5.773438 5.921875 -5.519531 5.703125 -5.15625 C 5.492188 -4.800781 5.351562 -4.382812 5.28125 -3.90625 C 5.238281 -3.71875 5.21875 -2.773438 5.21875 -1.078125 L 5.21875 1.46875 L 1.34375 1.46875 L 1.34375 -3.90625 C 1.34375 -5.71875 1.335938 -7.0625 1.328125 -7.9375 C 1.328125 -8.8125 1.316406 -9.257812 1.296875 -9.28125 C 1.222656 -9.425781 1.128906 -9.523438 1.015625 -9.578125 C 1.003906 -9.585938 1.015625 -9.597656 1.046875 -9.609375 C 1.109375 -9.628906 1.304688 -9.640625 1.640625 -9.640625 C 1.984375 -9.640625 2.460938 -9.640625 3.078125 -9.640625 L 5.21875 -9.640625 L 5.21875 -7.75 L 5.359375 -8.015625 C 5.597656 -8.585938 5.988281 -9.03125 6.53125 -9.34375 C 7.082031 -9.65625 7.664062 -9.8125 8.28125 -9.8125 Z M 8.28125 -9.8125 "/></g></g></g></svg>